<?xml version="1.0" encoding="UTF-8" standalone="no"?>
<svg
   xmlns:dc="http://purl.org/dc/elements/1.1/"
   xmlns:cc="http://creativecommons.org/ns#"
   xmlns:rdf="http://www.w3.org/1999/02/22-rdf-syntax-ns#"
   xmlns:svg="http://www.w3.org/2000/svg"
   xmlns="http://www.w3.org/2000/svg"
   xmlns:sodipodi="http://sodipodi.sourceforge.net/DTD/sodipodi-0.dtd"
   xmlns:inkscape="http://www.inkscape.org/namespaces/inkscape"
   version="1.1"
   id="Capa_1"
   x="0px"
   y="0px"
   viewBox="0 0 512 512"
   style="enable-background:new 0 0 512 512;"
   xml:space="preserve"
   sodipodi:docname="github.svg"
   inkscape:version="1.0.1 (1.0.1+r73)"><metadata
   id="metadata2029"><rdf:RDF><cc:Work
       rdf:about=""><dc:format>image/svg+xml</dc:format><dc:type
         rdf:resource="http://purl.org/dc/dcmitype/StillImage" /></cc:Work></rdf:RDF></metadata><defs
   id="defs2027" /><sodipodi:namedview
   pagecolor="#ffffff"
   bordercolor="#666666"
   borderopacity="1"
   objecttolerance="10"
   gridtolerance="10"
   guidetolerance="10"
   inkscape:pageopacity="0"
   inkscape:pageshadow="2"
   inkscape:window-width="1864"
   inkscape:window-height="1016"
   id="namedview2025"
   showgrid="false"
   inkscape:zoom="0.57521479"
   inkscape:cx="21.883035"
   inkscape:cy="341.16699"
   inkscape:window-x="1422"
   inkscape:window-y="27"
   inkscape:window-maximized="1"
   inkscape:current-layer="Capa_1" />
<path
   style="fill:#5ab2e9;fill-opacity:1"
   d="M255.968,5.329C114.624,5.329,0,120.401,0,262.353c0,113.536,73.344,209.856,175.104,243.872  c12.8,2.368,17.472-5.568,17.472-12.384c0-6.112-0.224-22.272-0.352-43.712c-71.2,15.52-86.24-34.464-86.24-34.464  c-11.616-29.696-28.416-37.6-28.416-37.6c-23.264-15.936,1.728-15.616,1.728-15.616c25.696,1.824,39.2,26.496,39.2,26.496  c22.848,39.264,59.936,27.936,74.528,21.344c2.304-16.608,8.928-27.936,16.256-34.368c-56.832-6.496-116.608-28.544-116.608-127.008  c0-28.064,9.984-51.008,26.368-68.992c-2.656-6.496-11.424-32.64,2.496-68c0,0,21.504-6.912,70.4,26.336  c20.416-5.696,42.304-8.544,64.096-8.64c21.728,0.128,43.648,2.944,64.096,8.672c48.864-33.248,70.336-26.336,70.336-26.336  c13.952,35.392,5.184,61.504,2.56,68c16.416,17.984,26.304,40.928,26.304,68.992c0,98.72-59.84,120.448-116.864,126.816  c9.184,7.936,17.376,23.616,17.376,47.584c0,34.368-0.32,62.08-0.32,70.496c0,6.88,4.608,14.88,17.6,12.352  C438.72,472.145,512,375.857,512,262.353C512,120.401,397.376,5.329,255.968,5.329z"
   id="path1992" />
<g
   id="g1994">
</g>
<g
   id="g1996">
</g>
<g
   id="g1998">
</g>
<g
   id="g2000">
</g>
<g
   id="g2002">
</g>
<g
   id="g2004">
</g>
<g
   id="g2006">
</g>
<g
   id="g2008">
</g>
<g
   id="g2010">
</g>
<g
   id="g2012">
</g>
<g
   id="g2014">
</g>
<g
   id="g2016">
</g>
<g
   id="g2018">
</g>
<g
   id="g2020">
</g>
<g
   id="g2022">
</g>
</svg>
