<?xml version="1.0" encoding="UTF-8" standalone="no"?>
<svg
   xmlns:dc="http://purl.org/dc/elements/1.1/"
   xmlns:cc="http://creativecommons.org/ns#"
   xmlns:rdf="http://www.w3.org/1999/02/22-rdf-syntax-ns#"
   xmlns:svg="http://www.w3.org/2000/svg"
   xmlns="http://www.w3.org/2000/svg"
   xmlns:sodipodi="http://sodipodi.sourceforge.net/DTD/sodipodi-0.dtd"
   xmlns:inkscape="http://www.inkscape.org/namespaces/inkscape"
   version="1.1"
   id="Capa_1"
   x="0px"
   y="0px"
   viewBox="0 0 112.196 112.196"
   style="enable-background:new 0 0 112.196 112.196;"
   xml:space="preserve"
   sodipodi:docname="linkedin.svg"
   inkscape:version="1.0.1 (3bc2e813f5, 2020-09-07)"><metadata
   id="metadata3021"><rdf:RDF><cc:Work
       rdf:about=""><dc:format>image/svg+xml</dc:format><dc:type
         rdf:resource="http://purl.org/dc/dcmitype/StillImage" /></cc:Work></rdf:RDF></metadata><defs
   id="defs3019" /><sodipodi:namedview
   pagecolor="#ffffff"
   bordercolor="#666666"
   borderopacity="1"
   objecttolerance="10"
   gridtolerance="10"
   guidetolerance="10"
   inkscape:pageopacity="0"
   inkscape:pageshadow="2"
   inkscape:window-width="1920"
   inkscape:window-height="1027"
   id="namedview3017"
   showgrid="false"
   inkscape:zoom="1.3707773"
   inkscape:cx="82.294448"
   inkscape:cy="100.08309"
   inkscape:window-x="-8"
   inkscape:window-y="-8"
   inkscape:window-maximized="1"
   inkscape:current-layer="Capa_1"
   inkscape:document-rotation="0" />
<g
   id="g2984">
	<circle
   style="fill:#667eea;fill-opacity:1"
   cx="56.098"
   cy="56.097"
   r="56.098"
   id="circle2978" />
	<g
   id="g2982">
		<path
   style="fill:#F1F2F2;"
   d="M89.616,60.611v23.128H76.207V62.161c0-5.418-1.936-9.118-6.791-9.118    c-3.705,0-5.906,2.491-6.878,4.903c-0.353,0.862-0.444,2.059-0.444,3.268v22.524H48.684c0,0,0.18-36.546,0-40.329h13.411v5.715    c-0.027,0.045-0.065,0.089-0.089,0.132h0.089v-0.132c1.782-2.742,4.96-6.662,12.085-6.662    C83.002,42.462,89.616,48.226,89.616,60.611L89.616,60.611z M34.656,23.969c-4.587,0-7.588,3.011-7.588,6.967    c0,3.872,2.914,6.97,7.412,6.97h0.087c4.677,0,7.585-3.098,7.585-6.97C42.063,26.98,39.244,23.969,34.656,23.969L34.656,23.969z     M27.865,83.739H41.27V43.409H27.865V83.739z"
   id="path2980" />
	</g>
</g>
<g
   id="g2986">
</g>
<g
   id="g2988">
</g>
<g
   id="g2990">
</g>
<g
   id="g2992">
</g>
<g
   id="g2994">
</g>
<g
   id="g2996">
</g>
<g
   id="g2998">
</g>
<g
   id="g3000">
</g>
<g
   id="g3002">
</g>
<g
   id="g3004">
</g>
<g
   id="g3006">
</g>
<g
   id="g3008">
</g>
<g
   id="g3010">
</g>
<g
   id="g3012">
</g>
<g
   id="g3014">
</g>
</svg>
